<svg xmlns="http://www.w3.org/2000/svg" xmlns:xlink="http://www.w3.org/1999/xlink" xml:space="preserve" width="100" height="100" viewBox="0 0 11.6225 11.6225"><defs><linearGradient id="a"><stop offset="0" style="stop-color:#f90958;stop-opacity:1"/><stop offset="1" style="stop-color:#2604ed;stop-opacity:1"/></linearGradient><linearGradient xlink:href="#a" id="b" x1=".6899" x2="10.9324" y1="5.8113" y2="5.8113" gradientUnits="userSpaceOnUse"/></defs><path d="M5.474.0006c-.3905-.002-.781.0062-1.1701.0385-.5264.0425-1.0614.1192-1.5481.3352a2.3002 2.3002 0 0 0-.9813.8224c-.3138.465-.4863 1.0085-.6173 1.5495-.1813.7786-.277 1.5743-.353 2.3693C.7352 5.7662.713 6.4203.706 7.0743c-.015.4627-.0383.93.0315 1.39.0584.384.2075.7766.5182 1.0262.3522.283.822.3446 1.2593.353-.498.5909-.9878 1.1892-1.4873 1.7788.4458-.0005.8914.0005 1.337-.0005.3414-.409.6738-.8255 1.0184-1.232 1.6215.002 3.2427-.0004 4.8636.001.3362.412.6743.8222 1.0126 1.2317.4442-.0012.888.0003 1.3322-.0007-.4951-.5925-.9857-1.1887-1.4844-1.778.4701-.0099.982-.0818 1.337-.4192.3638-.353.4574-.8824.4853-1.368.0086-.5167-.0017-1.0337-.0253-1.55-.0048-.5682-.056-1.1347-.114-1.6998-.092-.8402-.2003-1.6845-.44-2.4975-.1866-.6245-.48-1.2538-1.011-1.6583C8.7687.2172 8.0358.1 7.3396.0398 6.7191-.013 6.096.0028 5.474.0006m.5176.6117c.76.0027 1.5207.0379 2.2663.1939.3345.0812.6211.2993.8313.5667.283.3566.4583.7856.5886 1.219.2078.7069.2857 1.4451.3158 2.1795 0 .1748.023.3597-.0568.5223-.0818.1849-.2878.2867-.4838.2833-2.4212 0-4.8425-.0005-7.264 0-.1921.0065-.3955-.0835-.488-.2576-.0855-.1478-.0645-.3236-.066-.487.019-.8512.1226-1.711.4033-2.5188.1664-.4612.4013-.9195.788-1.2345a1.3767 1.3767 0 0 1 .625-.2903C4.0383.6784 4.6354.6265 5.2322.6171c.2527-.003.506-.0057.7593-.0048m2.638 6.4424c.2015-.0003.4033.0048.6044.0016.1637.0056.3426-.0281.4893.064.1592.0907.2481.2775.2359.458-.013.205.0428.4353-.0806.617-.0911.141-.2585.2247-.4254.2163-.3676-.0007-.7358.0021-1.1037-.0015-.1972 0-.3794-.139-.4405-.3248-.0438-.1758-.0125-.36-.0221-.5394-.0154-.2263.1589-.4424.3806-.4819a6.3774 6.3774 0 0 1 .3621-.0093m-5.93.0007c.1974.0002.3948.001.5922.0016.2542.0048.4615.2417.4509.492-.0096.1772.0233.3605-.025.5332-.062.1909-.2528.332-.4545.3287-.3682.0017-.7365.0009-1.1047.0004-.1743.0046-.3467-.0904-.4297-.2445-.0777-.1292-.0614-.2847-.063-.4285.0028-.1258-.0113-.2566.0324-.3776.0635-.168.229-.2945.4093-.3027.1973-.0022.3947-.0027.592-.0026" style="stroke-width:.240465;fill:url(#b);fill-opacity:1"/></svg>
